<svg xmlns="http://www.w3.org/2000/svg" viewBox="0 0 1240 1754" width="100%" height="100%">
  <!-- Cream Background -->
  <rect width="1240" height="1754" fill="#F5F1E6" />

  <!-- Top Header Brand Frame -->
  <g transform="translate(100, 80)">
    <!-- Node/Network Mark -->
    <g transform="scale(0.15)">
      <path d="M 120 100 L 40 100 L 40 280 L 220 280 L 220 230" stroke="#cf5c36" stroke-width="24" fill="none" stroke-linejoin="miter" stroke-linecap="square" />
      <path d="M 200 220 L 280 220 L 280 40 L 100 40 L 100 90" stroke="#111111" stroke-width="24" fill="none" stroke-linejoin="miter" stroke-linecap="square" />
      <line x1="100" y1="220" x2="130" y2="150" stroke="#cf5c36" stroke-width="8" />
      <line x1="100" y1="220" x2="200" y2="190" stroke="#cf5c36" stroke-width="8" />
      <line x1="210" y1="110" x2="130" y2="150" stroke="#111111" stroke-width="8" />
      <line x1="210" y1="110" x2="200" y2="190" stroke="#111111" stroke-width="8" />
      <line x1="130" y1="150" x2="200" y2="190" stroke="#111111" stroke-width="8" />
      <circle cx="210" cy="110" r="18" fill="#cf5c36" />
      <circle cx="100" cy="220" r="18" fill="#cf5c36" />
      <circle cx="130" cy="150" r="18" fill="#111111" />
      <circle cx="200" cy="190" r="18" fill="#111111" />
    </g>
    <!-- Text -->
    <text x="64" y="34" font-family="'Archivo Black', 'Arial Black', sans-serif" font-size="40" font-weight="900" letter-spacing="-0.02em">
      <tspan fill="#cf5c36">ML</tspan><tspan fill="#111111">BUILDER</tspan>
    </text>
  </g>
  
  <!-- Divider Line -->
  <line x1="100" y1="160" x2="1140" y2="160" stroke="#111111" stroke-width="2" opacity="0.15" />

  <!-- Bottom Footer Info -->
  <text x="620" y="1660" text-anchor="middle" font-family="'Inter', sans-serif" font-size="20" font-weight="500" fill="#111111" opacity="0.5">mlbuilder.in  ·  hello@mlbuilder.in  ·  @mlbuilder.py</text>
</svg>
