<svg xmlns="http://www.w3.org/2000/svg" viewBox="0 0 1080 1350" width="100%" height="100%">
  <defs>
    <!-- Graph-paper grid pattern -->
    <pattern id="grid" width="120" height="120" patternUnits="userSpaceOnUse">
      <path d="M 120 0 L 0 0 0 120" fill="none" stroke="#111111" stroke-width="1.5" opacity="0.08" />
    </pattern>
    
    <!-- Reusable Play Decor Icon -->
    <g id="play-decor">
      <circle cx="20" cy="20" r="19" stroke="#111111" stroke-width="2" fill="none" />
      <path d="M 17 13 L 27 20 L 17 27 Z" fill="#111111" />
    </g>
  </defs>

  <!-- Cream Background -->
  <rect width="1080" height="1350" fill="#F5F1E6" />
  <!-- Grid overlay -->
  <rect width="1080" height="1350" fill="url(#grid)" />

  <!-- Top Brand Bar -->
  <g transform="translate(60, 60)">
    <!-- Star -->
    <path d="M 16 2 L 18.5 12.5 L 29 16 L 18.5 19.5 L 16 30 L 13.5 19.5 L 3 16 L 13.5 12.5 Z" fill="#111111" />
    <!-- Text -->
    <text x="44" y="24" font-family="'Archivo Black', 'Arial Black', sans-serif" font-size="28" font-weight="900" letter-spacing="-0.02em">
      <tspan fill="#FF6A1A">ML</tspan><tspan fill="#111111">BUILDER</tspan>
    </text>
  </g>

  <!-- Bottom Bar Layout -->
  <line x1="60" y1="1240" x2="1020" y2="1240" stroke="#111111" stroke-width="2" opacity="0.15" />
  <text x="60" y="1285" font-family="'Inter', sans-serif" font-size="22" font-weight="700" fill="#FF6A1A" letter-spacing="0.05em">BUILD SOLO. SHARE OPENLY.</text>
  <text x="1020" y="1285" text-anchor="end" font-family="'Inter', sans-serif" font-size="22" font-weight="600" fill="#111111" opacity="0.6">@mlbuilder.py</text>

  <!-- Scattered Play Icons (background decoration) -->
  <use href="#play-decor" x="120" y="240" opacity="0.15" transform="scale(1.4)" />
  <use href="#play-decor" x="850" y="320" opacity="0.12" transform="scale(1.2)" />
  <use href="#play-decor" x="180" y="750" opacity="0.15" transform="scale(1.3)" />
  <use href="#play-decor" x="780" y="820" opacity="0.1" transform="scale(1.4)" />
</svg>
