<svg xmlns="http://www.w3.org/2000/svg" viewBox="0 0 1080 1920" width="100%" height="100%">
  <defs>
    <!-- Graph-paper grid pattern -->
    <pattern id="grid" width="120" height="120" patternUnits="userSpaceOnUse">
      <path d="M 120 0 L 0 0 0 120" fill="none" stroke="#111111" stroke-width="1.5" opacity="0.08" />
    </pattern>
    
    <!-- Reusable Play Decor Icon -->
    <g id="play-decor">
      <circle cx="20" cy="20" r="19" stroke="#111111" stroke-width="2" fill="none" />
      <path d="M 17 13 L 27 20 L 17 27 Z" fill="#111111" />
    </g>
  </defs>

  <!-- Cream Background -->
  <rect width="1080" height="1920" fill="#F5F1E6" />
  <!-- Grid overlay -->
  <rect width="1080" height="1920" fill="url(#grid)" />

  <!-- Top UI Safe Zone Guideline (Visual hint, low opacity) -->
  <line x1="60" y1="220" x2="1020" y2="220" stroke="#111111" stroke-width="1.5" stroke-dasharray="6 6" opacity="0.15" />
  <text x="60" y="210" font-family="'Inter', sans-serif" font-size="14" font-weight="600" fill="#111111" opacity="0.2" letter-spacing="0.1em">TOP SAFE AREA LIMIT</text>

  <!-- Bottom UI Safe Zone Guideline -->
  <line x1="60" y1="1700" x2="1020" y2="1700" stroke="#111111" stroke-width="1.5" stroke-dasharray="6 6" opacity="0.15" />
  <text x="60" y="1725" font-family="'Inter', sans-serif" font-size="14" font-weight="600" fill="#111111" opacity="0.2" letter-spacing="0.1em">BOTTOM SAFE AREA LIMIT</text>

  <!-- Top Brand Bar -->
  <g transform="translate(60, 240)">
    <!-- Node/Network Mark -->
    <g transform="scale(0.1)">
      <path d="M 120 100 L 40 100 L 40 280 L 220 280 L 220 230" stroke="#cf5c36" stroke-width="24" fill="none" stroke-linejoin="miter" stroke-linecap="square" />
      <path d="M 200 220 L 280 220 L 280 40 L 100 40 L 100 90" stroke="#111111" stroke-width="24" fill="none" stroke-linejoin="miter" stroke-linecap="square" />
      <line x1="100" y1="220" x2="130" y2="150" stroke="#cf5c36" stroke-width="8" />
      <line x1="100" y1="220" x2="200" y2="190" stroke="#cf5c36" stroke-width="8" />
      <line x1="210" y1="110" x2="130" y2="150" stroke="#111111" stroke-width="8" />
      <line x1="210" y1="110" x2="200" y2="190" stroke="#111111" stroke-width="8" />
      <line x1="130" y1="150" x2="200" y2="190" stroke="#111111" stroke-width="8" />
      <circle cx="210" cy="110" r="18" fill="#cf5c36" />
      <circle cx="100" cy="220" r="18" fill="#cf5c36" />
      <circle cx="130" cy="150" r="18" fill="#111111" />
      <circle cx="200" cy="190" r="18" fill="#111111" />
    </g>
    <!-- Text -->
    <text x="44" y="24" font-family="'Archivo Black', 'Arial Black', sans-serif" font-size="28" font-weight="900" letter-spacing="-0.02em">
      <tspan fill="#cf5c36">ML</tspan><tspan fill="#111111">BUILDER</tspan>
    </text>
  </g>

  <!-- Bottom Handle Reference -->
  <text x="1020" y="1670" text-anchor="end" font-family="'Inter', sans-serif" font-size="24" font-weight="600" fill="#111111" opacity="0.5">@mlbuilder.py</text>

  <!-- Scattered Play Icons (background decoration) -->
  <use href="#play-decor" x="120" y="480" opacity="0.15" transform="scale(1.5)" />
  <use href="#play-decor" x="520" y="800" opacity="0.12" transform="scale(1.2)" />
  <use href="#play-decor" x="80" y="1250" opacity="0.15" transform="scale(1.4)" />
  <use href="#play-decor" x="580" y="1120" opacity="0.1" transform="scale(1.3)" />
  <use href="#play-decor" x="480" y="1450" opacity="0.15" transform="scale(1.5)" />
</svg>
